HIERARCHY
ROOT Hips
{
	OFFSET 0.000000 113.099899 0.000000
	CHANNELS 6 Xposition Yposition Zposition Xrotation Yrotation Zrotation 
	JOINT Spine
	{
		OFFSET 0.030900 11.006599 0.107900
		CHANNELS 3 Xrotation Yrotation Zrotation
		JOINT Spine1
		{
			OFFSET 0.026567 7.368167 0.073067
			CHANNELS 3 Xrotation Yrotation Zrotation
			JOINT Spine1_split
			{
				OFFSET 0.026567 7.368167 0.073067
				CHANNELS 3 Xrotation Yrotation Zrotation
				JOINT Spine2
				{
					OFFSET 0.026567 7.368167 0.073067
					CHANNELS 3 Xrotation Yrotation Zrotation
					JOINT RightShoulder
					{
						OFFSET -4.045750 12.882797 -4.277050
						CHANNELS 3 Xrotation Yrotation Zrotation
						JOINT RightShoulder_split
						{
							OFFSET -4.045750 12.882797 -4.277050
							CHANNELS 3 Xrotation Yrotation Zrotation
							JOINT RightArm
							{
								OFFSET -16.792519 -5.760162 -3.882900
								CHANNELS 3 Xrotation Yrotation Zrotation
								JOINT RightForeArm
								{
									OFFSET -26.244873 0.000000 0.000000
									CHANNELS 3 Xrotation Yrotation Zrotation
									JOINT RightHand
									{
										OFFSET -28.289303 0.000000 0.000000
										CHANNELS 3 Xrotation Yrotation Zrotation
										JOINT RightHandThumb1
										{
											OFFSET -6.383202 -2.630096 4.038943
											CHANNELS 3 Xrotation Yrotation Zrotation
											JOINT RightHandThumb2
											{
												OFFSET -3.383270 -1.953323 1.953330
												CHANNELS 3 Xrotation Yrotation Zrotation
												JOINT RightHandThumb3
												{
													OFFSET -2.576279 -1.487411 1.487417
													CHANNELS 3 Xrotation Yrotation Zrotation
													JOINT RightHandThumb4
													{
														OFFSET -4.251595 -2.454651 2.454658
														CHANNELS 3 Xrotation Yrotation Zrotation
														End Site
														{
															OFFSET 0.000000 0.000000 0.000000
														}
													}
												}
											}
										}
										JOINT RightHandIndex1
										{
											OFFSET -17.366905 0.679031 3.487696
											CHANNELS 3 Xrotation Yrotation Zrotation
											JOINT RightHandIndex2
											{
												OFFSET -5.282501 0.000000 0.000000
												CHANNELS 3 Xrotation Yrotation Zrotation
												JOINT RightHandIndex3
												{
													OFFSET -2.920502 0.000000 0.000000
													CHANNELS 3 Xrotation Yrotation Zrotation
													JOINT RightHandIndex4
													{
														OFFSET -5.201721 0.000000 0.000000
														CHANNELS 3 Xrotation Yrotation Zrotation
														End Site
														{
															OFFSET 0.000000 0.000000 0.000000
														}
													}
												}
											}
										}
										JOINT RightHandMiddle1
										{
											OFFSET -18.143105 0.000000 0.000000
											CHANNELS 3 Xrotation Yrotation Zrotation
											JOINT RightHandMiddle2
											{
												OFFSET -3.858299 0.000000 0.000000
												CHANNELS 3 Xrotation Yrotation Zrotation
												JOINT RightHandMiddle3
												{
													OFFSET -6.063004 0.000000 0.000000
													CHANNELS 3 Xrotation Yrotation Zrotation
													JOINT RightHandMiddle4
													{
														OFFSET -4.743500 0.000000 0.000000
														CHANNELS 3 Xrotation Yrotation Zrotation
														End Site
														{
															OFFSET 0.000000 0.000000 0.000000
														}
													}
												}
											}
										}
										JOINT RightHandRing1
										{
											OFFSET -17.519402 0.582230 -3.709609
											CHANNELS 3 Xrotation Yrotation Zrotation
											JOINT RightHandRing2
											{
												OFFSET -5.151604 0.000000 0.000000
												CHANNELS 3 Xrotation Yrotation Zrotation
												JOINT RightHandRing3
												{
													OFFSET -5.030304 0.000000 0.000000
													CHANNELS 3 Xrotation Yrotation Zrotation
													JOINT RightHandRing4
													{
														OFFSET -3.839882 0.000000 0.000000
														CHANNELS 3 Xrotation Yrotation Zrotation
														End Site
														{
															OFFSET 0.000000 0.000000 0.000000
														}
													}
												}
											}
										}
										JOINT RightHandPinky1
										{
											OFFSET -17.049004 0.455902 -7.393680
											CHANNELS 3 Xrotation Yrotation Zrotation
											JOINT RightHandPinky2
											{
												OFFSET -3.134300 0.000000 0.000000
												CHANNELS 3 Xrotation Yrotation Zrotation
												JOINT RightHandPinky3
												{
													OFFSET -3.263298 0.000000 0.000000
													CHANNELS 3 Xrotation Yrotation Zrotation
													JOINT RightHandPinky4
													{
														OFFSET -2.849182 0.000000 0.000000
														CHANNELS 3 Xrotation Yrotation Zrotation
														End Site
														{
															OFFSET 0.000000 0.000000 0.000000
														}
													}
												}
											}
										}
									}
								}
							}
						}
					}
					JOINT Neck
					{
						OFFSET 0.048500 28.791901 -0.575700
						CHANNELS 3 Xrotation Yrotation Zrotation
						JOINT Head
						{
							OFFSET -0.000300 9.309402 3.460100
							CHANNELS 3 Xrotation Yrotation Zrotation
							JOINT HeadTop_End
							{
								OFFSET 0.003100 15.087601 6.292800
								CHANNELS 3 Xrotation Yrotation Zrotation
								End Site
								{
									OFFSET 0.000000 0.000000 0.000000
								}
							}
						}
					}
					JOINT LeftShoulder
					{
						OFFSET 3.921200 12.882797 -4.277050
						CHANNELS 3 Xrotation Yrotation Zrotation
						JOINT LeftShoulder_split
						{
							OFFSET 3.921200 12.882797 -4.277050
							CHANNELS 3 Xrotation Yrotation Zrotation
							JOINT LeftArm
							{
								OFFSET 16.792519 -5.760162 -3.882900
								CHANNELS 3 Xrotation Yrotation Zrotation
								JOINT LeftForeArm
								{
									OFFSET 26.244873 0.000000 0.000000
									CHANNELS 3 Xrotation Yrotation Zrotation
									JOINT LeftHand
									{
										OFFSET 28.289303 0.000000 0.000000
										CHANNELS 3 Xrotation Yrotation Zrotation
										JOINT LeftHandThumb1
										{
											OFFSET 6.383202 -2.630096 4.038943
											CHANNELS 3 Xrotation Yrotation Zrotation
											JOINT LeftHandThumb2
											{
												OFFSET 3.383270 -1.953323 1.953330
												CHANNELS 3 Xrotation Yrotation Zrotation
												JOINT LeftHandThumb3
												{
													OFFSET 2.576279 -1.487411 1.487417
													CHANNELS 3 Xrotation Yrotation Zrotation
													JOINT LeftHandThumb4
													{
														OFFSET 4.251595 -2.454651 2.454658
														CHANNELS 3 Xrotation Yrotation Zrotation
														End Site
														{
															OFFSET 0.000000 0.000000 0.000000
														}
													}
												}
											}
										}
										JOINT LeftHandIndex1
										{
											OFFSET 17.366905 0.679031 3.487696
											CHANNELS 3 Xrotation Yrotation Zrotation
											JOINT LeftHandIndex2
											{
												OFFSET 5.282501 0.000000 0.000000
												CHANNELS 3 Xrotation Yrotation Zrotation
												JOINT LeftHandIndex3
												{
													OFFSET 2.920502 0.000000 0.000000
													CHANNELS 3 Xrotation Yrotation Zrotation
													JOINT LeftHandIndex4
													{
														OFFSET 5.201721 0.000000 0.000000
														CHANNELS 3 Xrotation Yrotation Zrotation
														End Site
														{
															OFFSET 0.000000 0.000000 0.000000
														}
													}
												}
											}
										}
										JOINT LeftHandMiddle1
										{
											OFFSET 18.143105 0.000000 0.000000
											CHANNELS 3 Xrotation Yrotation Zrotation
											JOINT LeftHandMiddle2
											{
												OFFSET 3.858299 0.000000 0.000000
												CHANNELS 3 Xrotation Yrotation Zrotation
												JOINT LeftHandMiddle3
												{
													OFFSET 6.063004 0.000000 0.000000
													CHANNELS 3 Xrotation Yrotation Zrotation
													JOINT LeftHandMiddle4
													{
														OFFSET 4.743500 0.000000 0.000000
														CHANNELS 3 Xrotation Yrotation Zrotation
														End Site
														{
															OFFSET 0.000000 0.000000 0.000000
														}
													}
												}
											}
										}
										JOINT LeftHandRing1
										{
											OFFSET 17.519402 0.582230 -3.709609
											CHANNELS 3 Xrotation Yrotation Zrotation
											JOINT LeftHandRing2
											{
												OFFSET 5.151604 0.000000 0.000000
												CHANNELS 3 Xrotation Yrotation Zrotation
												JOINT LeftHandRing3
												{
													OFFSET 5.030304 0.000000 0.000000
													CHANNELS 3 Xrotation Yrotation Zrotation
													JOINT LeftHandRing4
													{
														OFFSET 3.839882 0.000000 0.000000
														CHANNELS 3 Xrotation Yrotation Zrotation
														End Site
														{
															OFFSET 0.000000 0.000000 0.000000
														}
													}
												}
											}
										}
										JOINT LeftHandPinky1
										{
											OFFSET 17.049004 0.455902 -7.393680
											CHANNELS 3 Xrotation Yrotation Zrotation
											JOINT LeftHandPinky2
											{
												OFFSET 3.134300 0.000000 0.000000
												CHANNELS 3 Xrotation Yrotation Zrotation
												JOINT LeftHandPinky3
												{
													OFFSET 3.263298 0.000000 0.000000
													CHANNELS 3 Xrotation Yrotation Zrotation
													JOINT LeftHandPinky4
													{
														OFFSET 2.849182 0.000000 0.000000
														CHANNELS 3 Xrotation Yrotation Zrotation
														End Site
														{
															OFFSET 0.000000 0.000000 0.000000
														}
													}
												}
											}
										}
									}
								}
							}
						}
					}
				}
			}
		}
	}
	JOINT LeftUpLeg
	{
		OFFSET 12.782900 -8.515800 1.402900
		CHANNELS 3 Xrotation Yrotation Zrotation
		JOINT LeftLeg
		{
			OFFSET 0.286293 -45.696644 1.647000
			CHANNELS 3 Xrotation Yrotation Zrotation
			JOINT LeftFoot
			{
				OFFSET -0.286293 -49.013859 -4.511100
				CHANNELS 3 Xrotation Yrotation Zrotation
				JOINT LeftToeBase
				{
					OFFSET 3.214700 -9.860800 10.650700
					CHANNELS 3 Xrotation Yrotation Zrotation
					JOINT LeftToe_End
					{
						OFFSET 3.562400 -0.012800 12.320899
						CHANNELS 3 Xrotation Yrotation Zrotation
						End Site
						{
							OFFSET 0.000000 0.000000 0.000000
						}
					}
				}
			}
		}
	}
	JOINT RightUpLeg
	{
		OFFSET -12.810900 -8.515800 1.402900
		CHANNELS 3 Xrotation Yrotation Zrotation
		JOINT RightLeg
		{
			OFFSET -0.286355 -45.696659 1.646900
			CHANNELS 3 Xrotation Yrotation Zrotation
			JOINT RightFoot
			{
				OFFSET 0.286355 -49.013847 -4.510900
				CHANNELS 3 Xrotation Yrotation Zrotation
				JOINT RightToeBase
				{
					OFFSET -3.214701 -9.860800 10.650700
					CHANNELS 3 Xrotation Yrotation Zrotation
					JOINT RightToe_End
					{
						OFFSET -3.562401 -0.012800 12.320900
						CHANNELS 3 Xrotation Yrotation Zrotation
						End Site
						{
							OFFSET 0.000000 0.000000 0.000000
						}
					}
				}
			}
		}
	}
}
MOTION
Frames: 4
Frame Time: 0.016667
19.804573 117.778664 73.304520 -109.587168 40.633758 49.259287 9.022778 -0.453041 8.400118 17.958326 1.196288 17.257513 0.000000 0.000000 0.000000 17.958330 1.196276 17.257508 -0.514188 -2.157046 -12.517328 0.000000 0.000000 0.000000 3.984654 13.056088 63.855070 179.709763 62.061216 -179.743204 -10.149916 8.160300 38.223672 -6.852995 0.690344 -12.038825 6.808697 -23.533963 -5.363675 -0.000013 -0.000001 0.000007 -0.000001 -0.000001 -0.000002 0.223266 -1.236978 19.068587 0.521951 -1.862784 34.716048 0.000001 -0.000003 -0.000000 0.000001 0.000000 -0.000000 -0.473577 -1.346893 30.021171 -0.503206 1.626451 29.761685 -0.000001 0.000002 -0.000003 -0.000000 -0.000002 0.000001 -0.854625 -6.876700 37.444108 -0.716207 1.091551 36.324281 -0.000008 -0.000001 -0.000007 -0.000001 0.000002 0.000001 -1.735664 -11.179007 41.515208 -1.331526 3.687220 38.067988 -0.000003 -0.000008 0.000003 0.000000 0.000001 -0.000001 -24.053983 -13.916686 -9.079577 6.277104 -14.943132 -0.959376 -0.000000 -0.000000 -0.000000 -2.094555 11.541439 10.623223 0.000000 0.000000 0.000000 13.022340 13.431753 -24.182549 3.586052 -110.202363 3.365627 -80.225093 4.359723 -0.631297 -20.626265 5.365437 13.440624 -0.127081 1.620305 0.536547 0.000000 0.000003 -0.000006 -0.000002 0.000000 0.000000 -8.252579 7.680084 -3.960372 0.445313 0.751530 -5.934410 0.000008 0.000002 0.000003 0.000000 -0.000000 0.000000 -0.843968 7.221901 -3.695419 -0.008695 0.056389 -3.765391 0.000000 -0.000002 0.000002 0.000000 0.000000 0.000001 1.709892 5.836517 -1.518362 -0.055149 0.258320 -8.790844 0.000006 0.000001 0.000000 -0.000000 0.000000 -0.000002 7.175647 6.576552 -1.089766 -0.119978 -1.413386 -8.629193 -0.000000 -0.000001 -0.000001 0.000000 0.000000 0.000001 -106.243394 -41.739436 -14.529487 116.827217 -2.719237 -2.458815 49.908947 -7.153493 4.329209 6.728664 -9.234743 8.140035 -0.000001 0.000001 -0.000000 -82.579863 -13.370100 16.249725 63.874652 2.235434 2.266708 24.214561 -23.999898 14.746952 -6.489614 -1.690480 1.585594 0.000001 -0.000001 -0.000000 
19.010086 116.869537 72.498611 -108.552968 40.315376 48.167355 8.996854 -0.364426 8.328871 17.896429 1.332947 17.080177 0.000000 0.000000 0.000000 17.896419 1.332935 17.080164 -0.798667 -2.519930 -16.482146 0.000000 0.000000 0.000000 4.335851 9.425278 67.741864 179.171913 62.922530 -179.262263 -11.312285 8.964161 38.367334 -6.290437 0.817691 -10.818996 6.875167 -23.665405 -5.335673 -0.000014 0.000001 0.000008 -0.000003 -0.000001 -0.000001 0.194384 -1.241498 19.407658 0.498255 -1.877680 35.153505 0.000005 -0.000002 -0.000000 0.000000 0.000004 -0.000003 -0.507168 -1.332202 30.467452 -0.516887 1.650863 30.186943 -0.000000 0.000000 -0.000001 0.000002 -0.000007 0.000003 -0.851563 -6.873696 37.951762 -0.736909 1.119408 36.855475 -0.000005 0.000001 -0.000008 0.000000 -0.000002 0.000001 -1.726012 -11.215353 42.035750 -1.367069 3.734184 38.604485 -0.000006 -0.000007 0.000001 0.000000 -0.000001 -0.000002 -22.500996 -14.716742 -8.046274 4.739484 -14.381037 -1.023496 0.000002 -0.000001 -0.000001 -1.998330 11.048464 10.564307 0.000000 0.000000 0.000000 12.555170 13.417837 -24.886020 3.520336 -111.028120 3.286087 -77.154732 4.435928 1.569152 -20.688211 5.043557 13.363235 -0.459495 1.350700 0.822979 -0.000002 0.000004 -0.000007 -0.000001 0.000000 0.000000 -8.269398 7.703879 -4.366230 0.453570 0.821715 -6.873184 0.000008 0.000001 0.000004 -0.000001 0.000001 -0.000002 -0.842713 7.183691 -4.439045 -0.013120 -0.002151 -4.862277 -0.000001 -0.000002 0.000004 -0.000001 0.000000 -0.000002 1.717205 5.729634 -2.574879 -0.055160 0.258322 -8.790844 0.000008 0.000001 -0.000003 -0.000001 -0.000000 0.000000 7.251330 6.330541 -2.560753 -0.119994 -1.413389 -8.629183 -0.000001 -0.000001 -0.000000 -0.000000 0.000000 0.000001 -104.209289 -41.747895 -12.979011 113.527115 -2.377427 -2.458094 48.037615 -6.411606 2.507456 6.845940 -8.450396 7.331500 0.000000 0.000000 -0.000001 -82.670328 -13.399020 16.894410 61.512848 2.182179 2.222095 22.772831 -20.230609 14.294460 -5.649389 -1.524226 1.434774 0.000001 -0.000000 0.000001 
18.145332 115.890167 71.717979 -107.574025 39.939135 47.120662 8.979640 -0.339410 8.251404 17.861235 1.354162 16.905659 0.000000 0.000000 0.000000 17.861233 1.354132 16.905630 -1.029574 -2.780676 -19.474640 0.000000 0.000000 0.000000 4.876329 5.465727 70.742714 178.512526 64.668545 -178.655113 -12.565203 9.485995 38.812844 -5.103537 0.615821 -8.846700 6.887729 -23.690072 -5.330393 -0.000014 0.000001 0.000007 -0.000002 0.000001 -0.000000 0.189047 -1.242075 19.471403 0.493822 -1.880120 35.235757 0.000001 -0.000001 -0.000001 -0.000000 0.000002 -0.000000 -0.513562 -1.329278 30.551330 -0.519477 1.655419 30.266873 0.000000 0.000001 -0.000000 -0.000002 -0.000003 0.000002 -0.851246 -6.873337 38.047128 -0.740824 1.124619 36.955312 -0.000007 -0.000001 -0.000007 0.000002 0.000001 0.000000 -1.725063 -11.222632 42.133391 -1.373781 3.742965 38.705381 -0.000007 -0.000008 0.000000 0.000001 -0.000001 0.000001 -20.431350 -15.503583 -7.133790 3.051972 -13.893662 -1.076834 -0.000000 0.000002 0.000001 -1.889851 10.473666 10.517308 0.000000 0.000000 0.000000 12.444321 13.246965 -25.490275 3.418791 -111.438634 3.182428 -74.437936 4.686570 3.505164 -20.753257 4.728656 13.285415 -0.781056 1.105528 1.113196 -0.000001 0.000004 -0.000007 0.000002 0.000000 0.000000 -8.274087 7.737358 -4.767094 0.462925 0.890759 -7.811587 0.000006 0.000001 0.000005 0.000001 0.000000 0.000000 -0.836390 7.142834 -5.258115 -0.018550 -0.059882 -5.945871 0.000000 -0.000002 -0.000001 0.000001 0.000000 -0.000001 1.711749 5.600519 -3.844908 -0.055160 0.258314 -8.790849 0.000007 0.000000 0.000002 -0.000001 -0.000000 0.000001 7.251372 5.999577 -4.290996 -0.119973 -1.413391 -8.629183 -0.000001 -0.000001 -0.000003 -0.000000 0.000000 0.000001 -101.521452 -41.278866 -10.654620 109.508040 -2.060367 -2.457783 45.951682 -3.617223 1.415030 7.001428 -7.638354 6.491306 -0.000000 -0.000001 0.000000 -82.544202 -13.346951 17.567088 59.225827 2.122166 2.174628 21.510332 -21.579747 14.596939 -4.769178 -1.477065 1.363946 0.000000 0.000000 0.000001 
17.284801 114.869873 70.962646 -106.713960 39.536355 46.202248 8.981146 -0.368009 8.175316 17.871183 1.274379 16.739819 0.000000 0.000000 0.000000 17.871169 1.274381 16.739815 -1.239278 -3.075190 -21.621681 0.000000 0.000000 0.000000 5.434551 1.319155 72.938559 177.682604 67.117004 -177.864437 -13.491037 9.795208 39.407866 -3.528011 0.225612 -6.370917 6.875144 -23.665402 -5.335688 -0.000015 -0.000000 0.000008 -0.000000 0.000000 0.000000 0.194370 -1.241495 19.407655 0.498261 -1.877678 35.153522 -0.000002 0.000001 -0.000001 -0.000002 0.000001 -0.000001 -0.507174 -1.332200 30.467445 -0.516871 1.650838 30.186940 -0.000002 -0.000003 -0.000002 0.000001 -0.000006 0.000001 -0.851570 -6.873696 37.951738 -0.736921 1.119430 36.855479 -0.000004 -0.000001 -0.000009 0.000001 -0.000000 -0.000001 -1.726027 -11.215361 42.035730 -1.367067 3.734190 38.604530 -0.000006 -0.000010 -0.000001 0.000000 -0.000000 0.000001 -18.155860 -16.217639 -6.295491 1.457930 -13.466745 -1.130432 -0.000001 -0.000000 -0.000001 -1.786434 9.900296 10.508932 0.000000 0.000000 0.000000 12.623200 13.001434 -26.066268 3.307220 -111.497545 3.077291 -71.797596 4.984823 5.089699 -20.817255 4.440540 13.211814 -1.068139 0.907433 1.395017 -0.000001 0.000003 -0.000008 0.000002 -0.000000 0.000000 -8.261816 7.785929 -5.187288 0.473092 0.957538 -8.736453 0.000007 0.000001 0.000003 0.000000 -0.000000 -0.000001 -0.824227 7.099152 -6.154321 -0.024932 -0.115872 -6.998776 -0.000000 -0.000002 0.000000 -0.000000 0.000000 -0.000002 1.688500 5.449537 -5.335126 -0.055139 0.258315 -8.790846 0.000007 0.000001 0.000003 0.000000 -0.000000 0.000001 7.141546 5.587073 -6.279936 -0.119966 -1.413389 -8.629187 -0.000000 -0.000001 -0.000002 -0.000000 0.000000 0.000000 -98.553667 -40.418655 -7.949901 104.922941 -1.787808 -2.454413 43.556017 -0.736994 1.539168 7.317978 -6.953799 5.767884 -0.000000 0.000000 0.000001 -82.263973 -13.240228 18.196688 57.245984 2.041712 2.128073 19.945112 -24.558746 16.152335 -3.929429 -1.513575 1.354982 0.000002 -0.000001 -0.000001 
